<svg width="142" height="142" version="1.1" xmlns="http://www.w3.org/2000/svg" desc="Created with imagetracer.js version 1.2.6" ><path fill="rgb(241,241,243)" stroke="rgb(241,241,243)" stroke-width="1" opacity="0.21568627450980393" d="M 65.5 5 Q 75.8 3.7 81.5 7 Q 103 18 127.5 26 L 132 29.5 Q 133 35 129.5 36 L 103.5 46 L 101.5 48 L 98.5 48 L 84.5 55 L 74.5 58 L 67.5 58 L 22.5 41 L 9 33.5 Q 8.3 27.8 12.5 27 L 65.5 5 Z M 67 7 L 12 29 L 11 33 L 22 39 L 67 56 Q 77 57 83 54 L 130 34 L 131 32 L 125 27 L 120 26 L 81 9 Q 76 6 67 7 Z " /><path fill="rgb(241,241,243)" stroke="rgb(241,241,243)" stroke-width="1" opacity="0.21568627450980393" d="M 131.5 42 Q 137.9 42.1 140 46.5 L 141 103.5 L 140 108.5 L 136.5 113 L 88.5 134 L 83.5 136 L 79.5 136 L 75 132.5 L 74 130.5 L 74 71.5 L 77 65 L 131.5 42 Z M 132 44 L 80 66 L 76 72 L 76 131 L 79 134 L 87 133 L 134 113 L 139 107 L 139 49 L 138 47 Q 137 43 132 44 Z " /><path fill="rgb(241,241,243)" stroke="rgb(241,241,243)" stroke-width="1" opacity="0.21568627450980393" d="M 5.5 43 L 11.5 43 L 22.5 48 L 25.5 48 L 44.5 56 L 46.5 58 L 56.5 61 L 65 66.5 L 67 70.5 L 67 132.5 L 61.5 136 L 15.5 117 L 3 109.5 L 2 107.5 L 2 46.5 L 5.5 43 Z M 8 44 L 3 50 L 3 105 L 4 108 Q 8 113 17 116 L 29 120 L 60 134 Q 65 135 66 132 L 66 74 L 64 69 L 56 63 L 8 44 Z " /><path fill="rgb(71,147,199)" stroke="rgb(71,147,199)" stroke-width="1" opacity="0.996078431372549" d="M 65.5 8 L 76.5 8 L 127.5 29 L 130 31.5 L 128.5 34 L 77.5 55 L 64.5 55 L 60 52.5 L 73.5 51 Q 80.5 49.5 84 44.5 L 85 36.5 L 76.5 25 L 63.5 18 L 51.5 17 Q 50 19.5 44.5 18 L 44.5 17 L 65.5 8 Z " /><path fill="rgb(71,147,199)" stroke="rgb(71,147,199)" stroke-width="1" opacity="0.996078431372549" d="M 26.5 52 L 51.5 63 L 56.5 64 L 64 69.5 L 65 72.5 L 65 113.5 L 64 113.5 L 60 98.5 L 54 85.5 Q 45 70 32.5 58 L 26.5 52 Z " /><path fill="rgb(0,0,0)" stroke="rgb(0,0,0)" stroke-width="1" opacity="0" d="M 0 0 L 142 0 L 142 142 L 0 142 L 0 0 Z M 66 5 L 13 27 Q 8 28 9 34 L 23 41 L 68 58 L 75 58 L 85 55 L 99 48 L 102 48 L 104 46 L 130 36 Q 133 35 132 30 L 128 26 Q 103 18 82 7 Q 76 4 66 5 Z M 132 42 L 77 65 L 74 72 L 74 131 L 75 133 L 80 136 L 84 136 L 89 134 L 137 113 L 140 109 L 141 104 L 140 47 Q 138 42 132 42 Z M 6 43 L 2 47 L 2 108 L 3 110 L 16 117 L 62 136 L 67 133 L 67 71 L 65 67 L 57 61 L 47 58 L 45 56 L 26 48 L 23 48 L 12 43 L 6 43 Z " /><path fill="rgb(1,3,4)" stroke="rgb(1,3,4)" stroke-width="1" opacity="0.996078431372549" d="M 48.5 18 L 59.5 18 L 66.5 20 L 79 28 L 84 36.5 L 84 42.5 Q 75.5 53.3 55 51 L 55.5 49 L 56.5 50 L 64.5 50 L 64.5 49 L 57.5 47 L 55 44.5 L 60.5 44 L 66 46 L 65 48.5 L 69.5 49 Q 78 47.5 82 41.5 L 81 38.5 L 82 35.5 L 77.5 30 L 73 32 Q 74 29 71 30 L 70.5 32 L 70 30.5 L 71 28.5 L 71 26.5 L 69.5 23 L 59.5 19 L 58.5 22 L 56 20.5 Q 56.9 23.5 52.5 22 Q 51.1 19.4 46.5 20 L 38 21.5 L 38.5 23 L 36.5 23 L 34 21.5 L 48.5 18 Z " /><path fill="rgb(1,3,4)" stroke="rgb(1,3,4)" stroke-width="1" opacity="0.996078431372549" d="M 31.5 22 L 34 23.5 L 32 24.5 L 32.5 23 L 27.5 26 L 25.5 26 L 24 25.5 L 31.5 22 Z " /><path fill="rgb(1,3,4)" stroke="rgb(1,3,4)" stroke-width="1" opacity="0.996078431372549" d="M 60.5 22 L 65 24.5 L 65 26 L 61 26 Q 62.3 22.7 57.5 24 L 57.5 23 L 60.5 22 Z " /><path fill="rgb(1,3,4)" stroke="rgb(1,3,4)" stroke-width="1" opacity="0.996078431372549" d="M 47.5 23 L 51 23.5 L 47.5 24 L 47.5 23 Z " /><path fill="rgb(1,3,4)" stroke="rgb(1,3,4)" stroke-width="1" opacity="0.996078431372549" d="M 36.5 24 L 38.5 24 L 43.5 25 L 45.5 24 L 45.5 25 L 40.5 26 L 38.5 25 Q 36.7 27.5 36.5 24 Z " /><path fill="rgb(1,3,4)" stroke="rgb(1,3,4)" stroke-width="1" opacity="0.996078431372549" d="M 21.5 26 L 23 26.5 L 19.5 28 L 19.5 27 L 21.5 26 Z " /><path fill="rgb(1,3,4)" stroke="rgb(1,3,4)" stroke-width="1" opacity="0.996078431372549" d="M 16.5 28 L 18 28.5 L 14 31.5 L 16 32.5 L 15.5 34 L 17 34.5 L 15.5 35 L 12 32.5 L 14.5 29 L 16.5 28 Z " /><path fill="rgb(1,3,4)" stroke="rgb(1,3,4)" stroke-width="1" opacity="0.996078431372549" d="M 18.5 33 L 19 35.5 L 18 35.5 L 18.5 33 Z " /><path fill="rgb(1,3,4)" stroke="rgb(1,3,4)" stroke-width="1" opacity="0.996078431372549" d="M 21.5 33 L 22.5 35 L 24 34.5 Q 24.8 36.8 22.5 36 L 22.5 37 L 26 35.5 L 26.5 34 L 27 36 L 29 35.5 L 28 33.5 L 29 33.5 L 30 35.5 L 27.5 37 Q 26.2 34.8 25 37.5 L 25.5 39 L 20 36.5 L 22 35.5 L 20 34.5 L 21.5 33 Z " /><path fill="rgb(1,3,4)" stroke="rgb(1,3,4)" stroke-width="1" opacity="0.996078431372549" d="M 79.5 35 L 80 37.5 L 78.5 40 L 78 36.5 L 79.5 35 Z " /><path fill="rgb(1,3,4)" stroke="rgb(1,3,4)" stroke-width="1" opacity="0.996078431372549" d="M 28.5 38 L 29 40 L 31 40.5 L 29.5 41 L 27 39.5 L 28.5 38 Z " /><path fill="rgb(1,3,4)" stroke="rgb(1,3,4)" stroke-width="1" opacity="0.996078431372549" d="M 32.5 41 L 39.5 44 L 41.5 43 L 45.5 43 L 48 44.5 L 45 45.5 Q 46.3 48.3 47.5 46 L 51 48.5 L 49.5 49 L 42 46 L 41.5 44 L 39.5 45 L 32.5 42 L 32.5 41 Z " /><path fill="rgb(1,3,4)" stroke="rgb(1,3,4)" stroke-width="1" opacity="0.996078431372549" d="M 48.5 42 L 54 43.5 L 52.5 44 L 48.5 43 L 48.5 42 Z " /><path fill="rgb(1,3,4)" stroke="rgb(1,3,4)" stroke-width="1" opacity="0.996078431372549" d="M 7.5 45 Q 11.3 43.8 10 47.5 L 9.5 50 L 7.5 49 L 6 49.5 L 6.5 48 L 5 47.5 L 7.5 45 Z " /><path fill="rgb(1,3,4)" stroke="rgb(1,3,4)" stroke-width="1" opacity="0.996078431372549" d="M 14.5 47 L 16 49.5 L 14 48.5 L 14.5 47 Z " /><path fill="rgb(1,3,4)" stroke="rgb(1,3,4)" stroke-width="1" opacity="0.996078431372549" d="M 11.5 48 L 12.5 50 L 11.5 48 Z " /><path fill="rgb(1,3,4)" stroke="rgb(1,3,4)" stroke-width="1" opacity="0.996078431372549" d="M 17.5 48 Q 31.6 56.9 42 69.5 Q 50 78.5 55 90.5 L 53.5 90 Q 51.3 89.3 52 91.5 L 53 93.5 L 53 95.5 L 52.5 99 Q 49 95.8 49 90 L 47 89.5 L 48 87 L 51 86.5 L 49 86 L 46.5 80 L 45 80 L 45 76 L 43.5 76 L 40 71.5 L 40.5 70 L 39 70 L 39 68 Q 36.3 69.1 37 66.5 L 35 66.5 L 32.5 62 L 30.5 65 L 27 58.5 L 27.5 57 Q 23.3 56.3 22.5 59 L 22 57.5 L 25 56 Q 26.1 53.3 23.5 54 L 20 51.5 Q 20.8 49.3 18.5 50 L 17.5 48 Z " /><path fill="rgb(1,3,4)" stroke="rgb(1,3,4)" stroke-width="1" opacity="0.996078431372549" d="M 4.5 49 L 5 55.5 L 4 55.5 L 4.5 49 Z " /><path fill="rgb(1,3,4)" stroke="rgb(1,3,4)" stroke-width="1" opacity="0.996078431372549" d="M 17 52 Q 19.7 50.9 19 53.5 L 20 55.5 L 17 53.5 L 17 52 Z " /><path fill="rgb(1,3,4)" stroke="rgb(1,3,4)" stroke-width="1" opacity="0.996078431372549" d="M 30 68 L 33 68.5 L 32 71 Q 28.7 72.1 30 68 Z " /><path fill="rgb(1,3,4)" stroke="rgb(1,3,4)" stroke-width="1" opacity="0.996078431372549" d="M 33 71 L 37 71.5 L 34.5 75 L 33 71 Z " /><path fill="rgb(1,3,4)" stroke="rgb(1,3,4)" stroke-width="1" opacity="0.996078431372549" d="M 4.5 82 L 5 85.5 L 4 85.5 L 4.5 82 Z " /><path fill="rgb(1,3,4)" stroke="rgb(1,3,4)" stroke-width="1" opacity="0.996078431372549" d="M 55.5 92 L 62 106.5 L 65 122 L 63 121.5 L 64 118.5 L 61 113.5 L 60 105 L 55.5 107 Q 52.8 105.8 54 100.5 L 55 100.5 Q 54.3 102.8 56.5 102 L 58 99.5 L 56 94 L 54 93.5 L 55.5 92 Z M 56 103 L 56 105 L 58 104 L 56 103 Z " /><path fill="rgb(1,3,4)" stroke="rgb(1,3,4)" stroke-width="1" opacity="0.996078431372549" d="M 4.5 101 L 6 104.5 L 4 105 L 4.5 101 Z " /><path fill="rgb(1,3,4)" stroke="rgb(1,3,4)" stroke-width="1" opacity="0.996078431372549" d="M 48 102 Q 51.7 100.8 50 106 Q 46.3 107.2 48 102 Z " /><path fill="rgb(1,3,4)" stroke="rgb(1,3,4)" stroke-width="1" opacity="0.996078431372549" d="M 6.5 106 L 10 110.5 L 8.5 110 L 5 107.5 L 6.5 106 Z " /><path fill="rgb(1,3,4)" stroke="rgb(1,3,4)" stroke-width="1" opacity="0.996078431372549" d="M 11.5 106 L 14 107.5 L 12.5 107 L 11.5 106 Z " /><path fill="rgb(1,3,4)" stroke="rgb(1,3,4)" stroke-width="1" opacity="0.996078431372549" d="M 9.5 107 L 12 108 L 11.5 110 L 9.5 107 Z " /><path fill="rgb(1,3,4)" stroke="rgb(1,3,4)" stroke-width="1" opacity="0.996078431372549" d="M 11.5 111 L 16 113.5 L 14.5 113 Q 10.7 112.8 11.5 111 Z " /><path fill="rgb(1,3,4)" stroke="rgb(1,3,4)" stroke-width="1" opacity="0.996078431372549" d="M 26.5 114 L 28 114.5 L 24 116.5 L 26 117.5 L 24.5 118 L 22 116.5 L 26.5 114 Z " /><path fill="rgb(1,3,4)" stroke="rgb(1,3,4)" stroke-width="1" opacity="0.996078431372549" d="M 31.5 114 Q 33.8 113.3 33 115.5 L 31.5 114 Z " /><path fill="rgb(1,3,4)" stroke="rgb(1,3,4)" stroke-width="1" opacity="0.996078431372549" d="M 28.5 116 L 31 119.5 L 30 119.5 L 29.5 118 L 27.5 119 L 27.5 118 L 29 117.5 L 28.5 116 Z " /><path fill="rgb(1,3,4)" stroke="rgb(1,3,4)" stroke-width="1" opacity="0.996078431372549" d="M 34.5 120 L 40.5 124 L 43.5 123 L 43.5 124 L 40.5 125 L 34 122 L 34.5 120 Z " /><path fill="rgb(1,3,4)" stroke="rgb(1,3,4)" stroke-width="1" opacity="0.996078431372549" d="M 48.5 122 L 48 123.5 Q 47.3 126.1 50 125 L 50.5 123 L 51 126 Q 48.3 124.9 49 127.5 L 48 127.5 L 46.5 124 L 46 125.5 L 46.5 127 L 43 125.5 L 48.5 122 Z " /><path fill="rgb(1,3,4)" stroke="rgb(1,3,4)" stroke-width="1" opacity="0.996078431372549" d="M 52.5 122 L 54 124.5 L 52 123.5 L 52.5 122 Z " /><path fill="rgb(1,3,4)" stroke="rgb(1,3,4)" stroke-width="1" opacity="0.996078431372549" d="M 64.5 125 L 65 130.5 Q 64.3 133.8 59.5 133 L 60 131.5 L 60.5 130 L 61 132 L 64 130.5 L 64.5 125 Z " /><path fill="rgb(1,3,4)" stroke="rgb(1,3,4)" stroke-width="1" opacity="0.996078431372549" d="M 50.5 128 L 53 129.5 L 51.5 129 L 50.5 128 Z " /><path fill="rgb(1,3,4)" stroke="rgb(1,3,4)" stroke-width="1" opacity="0.996078431372549" d="M 54.5 130 L 58 131.5 L 56.5 131 Q 53.5 131.5 54.5 130 Z " /><path fill="rgb(22,32,42)" stroke="rgb(22,32,42)" stroke-width="1" opacity="0.9686274509803922" d="M 51.5 17 L 58 17.5 L 51.5 18 L 51.5 17 Z " /><path fill="rgb(22,32,42)" stroke="rgb(22,32,42)" stroke-width="1" opacity="0.9686274509803922" d="M 42.5 18 L 48 18.5 L 42.5 19 L 42.5 18 Z " /><path fill="rgb(22,32,42)" stroke="rgb(22,32,42)" stroke-width="1" opacity="0.9686274509803922" d="M 60.5 18 L 66 19.5 L 64.5 20 L 60.5 19 L 60.5 18 Z " /><path fill="rgb(22,32,42)" stroke="rgb(22,32,42)" stroke-width="1" opacity="0.9686274509803922" d="M 38.5 19 L 41 19.5 L 38.5 20 L 38.5 19 Z " /><path fill="rgb(22,32,42)" stroke="rgb(22,32,42)" stroke-width="1" opacity="0.9686274509803922" d="M 67.5 20 Q 75.9 23.1 81 29.5 Q 86.1 32.9 85 42.5 L 80.5 48 L 68.5 52 L 56.5 52 L 56.5 51 Q 76.3 52.8 84 42.5 L 84 36.5 L 79 28 L 67.5 21 L 67.5 20 Z " /><path fill="rgb(22,32,42)" stroke="rgb(22,32,42)" stroke-width="1" opacity="0.9686274509803922" d="M 13.5 29 L 12.5 31 L 13.5 29 Z " /><path fill="rgb(22,32,42)" stroke="rgb(22,32,42)" stroke-width="1" opacity="0.9686274509803922" d="M 16.5 35 L 20 36.5 L 18.5 37 L 16.5 35 Z " /><path fill="rgb(22,32,42)" stroke="rgb(22,32,42)" stroke-width="1" opacity="0.9686274509803922" d="M 23.5 38 L 27 39.5 L 25.5 40 L 23.5 38 Z " /><path fill="rgb(22,32,42)" stroke="rgb(22,32,42)" stroke-width="1" opacity="0.9686274509803922" d="M 40.5 45 L 44 46.5 L 42.5 47 L 40.5 45 Z " /><path fill="rgb(22,32,42)" stroke="rgb(22,32,42)" stroke-width="1" opacity="0.9686274509803922" d="M 5.5 46 L 5 47.5 L 4.5 49 L 4 47.5 L 5.5 46 Z " /><path fill="rgb(22,32,42)" stroke="rgb(22,32,42)" stroke-width="1" opacity="0.9686274509803922" d="M 20.5 49 L 34 59.5 L 46 73.5 L 42 70.5 L 28.5 56 Q 22.4 53.3 20.5 49 Z " /><path fill="rgb(22,32,42)" stroke="rgb(22,32,42)" stroke-width="1" opacity="0.9686274509803922" d="M 50.5 49 L 55 50.5 L 52.5 51 L 50.5 49 Z " /><path fill="rgb(22,32,42)" stroke="rgb(22,32,42)" stroke-width="1" opacity="0.9686274509803922" d="M 3.5 55 L 4 102.5 L 3 102.5 L 3.5 55 Z " /><path fill="rgb(22,32,42)" stroke="rgb(22,32,42)" stroke-width="1" opacity="0.9686274509803922" d="M 46.5 75 L 55 88.5 L 53 87.5 L 46.5 75 Z " /><path fill="rgb(22,32,42)" stroke="rgb(22,32,42)" stroke-width="1" opacity="0.9686274509803922" d="M 55.5 90 L 62 105.5 L 61 105.5 L 55 91.5 L 55.5 90 Z " /><path fill="rgb(22,32,42)" stroke="rgb(22,32,42)" stroke-width="1" opacity="0.9686274509803922" d="M 62.5 107 L 64 112.5 L 63 112.5 L 62.5 107 Z " /><path fill="rgb(22,32,42)" stroke="rgb(22,32,42)" stroke-width="1" opacity="0.9686274509803922" d="M 5.5 108 L 11 111.5 L 9.5 112 L 5.5 108 Z " /><path fill="rgb(22,32,42)" stroke="rgb(22,32,42)" stroke-width="1" opacity="0.9686274509803922" d="M 64.5 114 L 65 116.5 L 64 116.5 L 64.5 114 Z " /><path fill="rgb(22,32,42)" stroke="rgb(22,32,42)" stroke-width="1" opacity="0.9686274509803922" d="M 28.5 119 L 34 121.5 L 32.5 122 L 28.5 120 L 28.5 119 Z " /><path fill="rgb(22,32,42)" stroke="rgb(22,32,42)" stroke-width="1" opacity="0.9686274509803922" d="M 65.5 119 L 66 129.5 L 65 129.5 L 65.5 119 Z " /><path fill="rgb(22,32,42)" stroke="rgb(22,32,42)" stroke-width="1" opacity="0.9686274509803922" d="M 46.5 127 L 50 128.5 L 48.5 129 L 46.5 127 Z " /><path fill="rgb(22,32,42)" stroke="rgb(22,32,42)" stroke-width="1" opacity="0.9686274509803922" d="M 64.5 131 L 63.5 133 L 64.5 131 Z " /><path fill="rgb(118,146,170)" stroke="rgb(118,146,170)" stroke-width="1" opacity="0.8666666666666667" d="M 66.5 7 L 75 7.5 L 66.5 8 L 66.5 7 Z " /><path fill="rgb(118,146,170)" stroke="rgb(118,146,170)" stroke-width="1" opacity="0.8666666666666667" d="M 60.5 9 L 62 9.5 L 58.5 11 L 58.5 10 L 60.5 9 Z " /><path fill="rgb(118,146,170)" stroke="rgb(118,146,170)" stroke-width="1" opacity="0.8666666666666667" d="M 89.5 13 L 93 14.5 L 91.5 15 L 89.5 13 Z " /><path fill="rgb(118,146,170)" stroke="rgb(118,146,170)" stroke-width="1" opacity="0.8666666666666667" d="M 44.5 16 L 46 16.5 L 42.5 18 L 42.5 17 L 44.5 16 Z " /><path fill="rgb(118,146,170)" stroke="rgb(118,146,170)" stroke-width="1" opacity="0.8666666666666667" d="M 96.5 16 L 100 17.5 L 98.5 18 L 96.5 16 Z " /><path fill="rgb(118,146,170)" stroke="rgb(118,146,170)" stroke-width="1" opacity="0.8666666666666667" d="M 101.5 18 L 105 19.5 L 103.5 20 L 101.5 18 Z " /><path fill="rgb(118,146,170)" stroke="rgb(118,146,170)" stroke-width="1" opacity="0.8666666666666667" d="M 113.5 23 L 117 24.5 L 115.5 25 L 113.5 23 Z " /><path fill="rgb(118,146,170)" stroke="rgb(118,146,170)" stroke-width="1" opacity="0.8666666666666667" d="M 123.5 27 L 127 28.5 L 125.5 29 L 123.5 27 Z " /><path fill="rgb(118,146,170)" stroke="rgb(118,146,170)" stroke-width="1" opacity="0.8666666666666667" d="M 128.5 29 L 130.5 32 L 128.5 29 Z " /><path fill="rgb(118,146,170)" stroke="rgb(118,146,170)" stroke-width="1" opacity="0.8666666666666667" d="M 126.5 34 L 128 34.5 L 124.5 36 L 124.5 35 L 126.5 34 Z " /><path fill="rgb(118,146,170)" stroke="rgb(118,146,170)" stroke-width="1" opacity="0.8666666666666667" d="M 119.5 37 L 121 37.5 L 117.5 39 L 117.5 38 L 119.5 37 Z " /><path fill="rgb(118,146,170)" stroke="rgb(118,146,170)" stroke-width="1" opacity="0.8666666666666667" d="M 114.5 39 L 116 39.5 L 112.5 41 L 112.5 40 L 114.5 39 Z " /><path fill="rgb(118,146,170)" stroke="rgb(118,146,170)" stroke-width="1" opacity="0.8666666666666667" d="M 109.5 41 L 111 41.5 L 107.5 43 L 107.5 42 L 109.5 41 Z " /><path fill="rgb(118,146,170)" stroke="rgb(118,146,170)" stroke-width="1" opacity="0.8666666666666667" d="M 7.5 44 L 10 44.5 L 7.5 45 L 7.5 44 Z " /><path fill="rgb(118,146,170)" stroke="rgb(118,146,170)" stroke-width="1" opacity="0.8666666666666667" d="M 100.5 45 L 102 45.5 L 98.5 47 L 98.5 46 L 100.5 45 Z " /><path fill="rgb(118,146,170)" stroke="rgb(118,146,170)" stroke-width="1" opacity="0.8666666666666667" d="M 136.5 45 L 137.5 47 L 136.5 45 Z " /><path fill="rgb(118,146,170)" stroke="rgb(118,146,170)" stroke-width="1" opacity="0.8666666666666667" d="M 95.5 47 L 97 47.5 L 93.5 49 L 93.5 48 L 95.5 47 Z " /><path fill="rgb(118,146,170)" stroke="rgb(118,146,170)" stroke-width="1" opacity="0.8666666666666667" d="M 3.5 49 L 4 51.5 L 3 51.5 L 3.5 49 Z " /><path fill="rgb(118,146,170)" stroke="rgb(118,146,170)" stroke-width="1" opacity="0.8666666666666667" d="M 90.5 49 L 92 49.5 L 88.5 51 L 88.5 50 L 90.5 49 Z " /><path fill="rgb(118,146,170)" stroke="rgb(118,146,170)" stroke-width="1" opacity="0.8666666666666667" d="M 23.5 50 L 27 51.5 L 24.5 52 L 23.5 50 Z " /><path fill="rgb(118,146,170)" stroke="rgb(118,146,170)" stroke-width="1" opacity="0.8666666666666667" d="M 53.5 51 L 56 51.5 L 53.5 52 L 53.5 51 Z " /><path fill="rgb(118,146,170)" stroke="rgb(118,146,170)" stroke-width="1" opacity="0.8666666666666667" d="M 85.5 51 L 87 51.5 L 81.5 54 L 81.5 53 L 85.5 51 Z " /><path fill="rgb(118,146,170)" stroke="rgb(118,146,170)" stroke-width="1" opacity="0.8666666666666667" d="M 57.5 52 L 64 54.5 L 62.5 55 L 57.5 53 L 57.5 52 Z " /><path fill="rgb(118,146,170)" stroke="rgb(118,146,170)" stroke-width="1" opacity="0.8666666666666667" d="M 66.5 55 L 77 55.5 L 66.5 56 L 66.5 55 Z " /><path fill="rgb(118,146,170)" stroke="rgb(118,146,170)" stroke-width="1" opacity="0.8666666666666667" d="M 40.5 57 L 44 58.5 L 42.5 59 L 40.5 57 Z " /><path fill="rgb(118,146,170)" stroke="rgb(118,146,170)" stroke-width="1" opacity="0.8666666666666667" d="M 49.5 61 L 53 62.5 L 51.5 63 L 49.5 61 Z " /><path fill="rgb(118,146,170)" stroke="rgb(118,146,170)" stroke-width="1" opacity="0.8666666666666667" d="M 61.5 66 L 63.5 69 L 61.5 66 Z " /><path fill="rgb(118,146,170)" stroke="rgb(118,146,170)" stroke-width="1" opacity="0.8666666666666667" d="M 79.5 66 L 78.5 68 L 79.5 66 Z " /><path fill="rgb(118,146,170)" stroke="rgb(118,146,170)" stroke-width="1" opacity="0.8666666666666667" d="M 65.5 73 L 66 117.5 L 65 117.5 L 65.5 73 Z " /><path fill="rgb(118,146,170)" stroke="rgb(118,146,170)" stroke-width="1" opacity="0.8666666666666667" d="M 14.5 114 L 18 115.5 L 16.5 116 L 14.5 114 Z " /><path fill="rgb(118,146,170)" stroke="rgb(118,146,170)" stroke-width="1" opacity="0.8666666666666667" d="M 21.5 117 L 25 118.5 L 23.5 119 L 21.5 117 Z " /><path fill="rgb(118,146,170)" stroke="rgb(118,146,170)" stroke-width="1" opacity="0.8666666666666667" d="M 52.5 130 L 55 131.5 L 53.5 132 L 52.5 130 Z " /><path fill="rgb(118,146,170)" stroke="rgb(118,146,170)" stroke-width="1" opacity="0.8666666666666667" d="M 65.5 131 L 63.5 134 L 62 133.5 L 65.5 131 Z " /><path fill="rgb(118,146,170)" stroke="rgb(118,146,170)" stroke-width="1" opacity="0.8666666666666667" d="M 77.5 132 L 78.5 134 L 77.5 132 Z " /><path fill="rgb(217,57,55)" stroke="rgb(217,57,55)" stroke-width="1" opacity="0.996078431372549" d="M 131.5 45 Q 136.3 44.3 137 47.5 L 135 48 L 135.5 50 L 138 49 L 137.5 54 L 137 52 L 134.5 53 L 134 50 Q 129.5 50.8 127.5 48 L 127 49.5 L 128 53 Q 125 51 117.5 52 L 115 53 L 113 56.5 L 113.5 58 L 111 56.5 Q 111.8 58.8 109.5 58 L 106.5 59 L 103.5 58 Q 99.3 63 92 64 L 92 67 L 87 67 Q 88.1 64.3 85.5 65 L 85.5 64 L 88.5 63 Q 90 65.5 91.5 62 L 109 55 L 109.5 57 L 110 54 L 127.5 47 L 130.5 48 L 130.5 47 L 129 46.5 L 131.5 45 Z M 132 46 Q 131 48 135 48 Q 136 45 132 46 Z " /><path fill="rgb(217,57,55)" stroke="rgb(217,57,55)" stroke-width="1" opacity="0.996078431372549" d="M 130.5 53 L 133 54.5 L 132 57.5 L 134 59.5 L 134 72.5 L 132 73.5 L 132 59.5 L 130 59 L 130 72.5 L 128.5 79 L 128 59.5 Q 131.5 58 129 56.5 L 130.5 53 Z " /><path fill="rgb(217,57,55)" stroke="rgb(217,57,55)" stroke-width="1" opacity="0.996078431372549" d="M 116.5 55 L 126 55.5 L 123 56 L 121.5 59 Q 117.8 59.8 117 57.5 L 117.5 56 L 116.5 55 Z " /><path fill="rgb(217,57,55)" stroke="rgb(217,57,55)" stroke-width="1" opacity="0.996078431372549" d="M 137.5 55 L 138 106.5 L 135.5 110 L 131 109 L 132 106.5 L 132 80.5 L 133.5 79 L 134.5 105 Q 138.9 101.9 137 92.5 L 137 90.5 L 136 88.5 L 136 86.5 L 137 84.5 Q 133.5 83 136 81.5 L 137 73.5 L 136 72.5 L 136 58.5 L 135 56 L 137.5 55 Z M 136 105 L 134 107 L 137 107 Q 138 104 136 105 Z " /><path fill="rgb(217,57,55)" stroke="rgb(217,57,55)" stroke-width="1" opacity="0.996078431372549" d="M 106.5 60 Q 111.3 58.7 110 62 L 107 63.5 L 106 70.5 L 110 72 L 110.5 74 L 120 74 L 120 90 L 110 90 L 110 95.5 L 109.5 96 L 94 96 L 94 75 L 87 75 Q 88.7 70.9 84.5 72 L 79.5 70 L 78 73.5 L 79 74.5 L 79 94.5 L 78 97.5 L 78 99.5 Q 76.5 105 79 106.5 L 78 107.5 L 78 120.5 Q 79.3 123.3 80.5 121 Q 85 122 86 119.5 L 86 90.5 L 88 90 L 88 120.5 L 86 122.5 Q 87.6 125.5 93 124 L 91 127.5 L 92.5 128 L 95 126.5 Q 95.8 128.8 93.5 128 L 87.5 131 L 87 128.5 Q 88.8 122.8 82.5 125 L 78.5 124 L 81 127.5 L 81 129 L 84 129 Q 82.9 131.7 85.5 131 L 85.5 132 L 79.5 133 L 77 129.5 L 78 125.5 L 77 124.5 L 77 73.5 L 78 70.5 L 81.5 66 L 83.5 65 L 84 68 L 86 68 Q 84.9 70.7 87.5 70 Q 88.9 72.6 93.5 72 L 96.5 75 L 101.5 75 L 103 71 L 97 70 Q 98 73 95 72 L 94 68 Q 100.3 69.5 102 65.5 L 106.5 60 Z " /><path fill="rgb(217,57,55)" stroke="rgb(217,57,55)" stroke-width="1" opacity="0.996078431372549" d="M 128.5 85 L 130 86.5 L 130 104.5 L 128 108 L 123.5 109 L 120 106.5 L 127 103.5 L 127 98.5 L 129 91.5 L 127 86.5 L 128.5 85 Z " /><path fill="rgb(217,57,55)" stroke="rgb(217,57,55)" stroke-width="1" opacity="0.996078431372549" d="M 112 106 Q 115 105 114 108 Q 111 109 112 106 Z " /><path fill="rgb(217,57,55)" stroke="rgb(217,57,55)" stroke-width="1" opacity="0.996078431372549" d="M 112 109 Q 114.1 110.6 119.5 110 L 121.5 112 L 126.5 112 Q 127.7 109.8 132.5 111 L 132.5 112 L 116.5 119 L 116 116.5 L 118.5 116 L 121 114.5 L 112 112 L 112 109 Z " /><path fill="rgb(217,57,55)" stroke="rgb(217,57,55)" stroke-width="1" opacity="0.996078431372549" d="M 110.5 115 L 112 115 L 112 119 L 114.5 119 L 114.5 120 L 96 127 L 97 124.5 L 94 122.5 L 94.5 121 L 101 121 L 102.5 124 L 104 121 Q 107.8 122 109 119.5 Q 108.3 115.8 110.5 115 Z " /><path fill="rgb(201,82,83)" stroke="rgb(201,82,83)" stroke-width="1" opacity="0.9294117647058824" d="M 135.5 45 L 139 49.5 L 139 105.5 L 138 105.5 L 138 49.5 L 135.5 45 Z " /><path fill="rgb(201,82,83)" stroke="rgb(201,82,83)" stroke-width="1" opacity="0.9294117647058824" d="M 127.5 46 L 129 46.5 L 125.5 48 L 125.5 47 L 127.5 46 Z " /><path fill="rgb(201,82,83)" stroke="rgb(201,82,83)" stroke-width="1" opacity="0.9294117647058824" d="M 122.5 48 L 124 48.5 L 120.5 50 L 120.5 49 L 122.5 48 Z " /><path fill="rgb(201,82,83)" stroke="rgb(201,82,83)" stroke-width="1" opacity="0.9294117647058824" d="M 115.5 51 L 117 51.5 L 113.5 53 L 113.5 52 L 115.5 51 Z " /><path fill="rgb(201,82,83)" stroke="rgb(201,82,83)" stroke-width="1" opacity="0.9294117647058824" d="M 3.5 52 L 4 54.5 L 3 54.5 L 3.5 52 Z " /><path fill="rgb(201,82,83)" stroke="rgb(201,82,83)" stroke-width="1" opacity="0.9294117647058824" d="M 110.5 53 L 112 53.5 L 108.5 55 L 108.5 54 L 110.5 53 Z " /><path fill="rgb(201,82,83)" stroke="rgb(201,82,83)" stroke-width="1" opacity="0.9294117647058824" d="M 100.5 57 L 102 57.5 L 98.5 59 L 98.5 58 L 100.5 57 Z " /><path fill="rgb(201,82,83)" stroke="rgb(201,82,83)" stroke-width="1" opacity="0.9294117647058824" d="M 96.5 59 L 95.5 61 L 94 60.5 L 96.5 59 Z " /><path fill="rgb(201,82,83)" stroke="rgb(201,82,83)" stroke-width="1" opacity="0.9294117647058824" d="M 91.5 61 L 93 61.5 L 89.5 63 L 89.5 62 L 91.5 61 Z " /><path fill="rgb(201,82,83)" stroke="rgb(201,82,83)" stroke-width="1" opacity="0.9294117647058824" d="M 80.5 66 L 78.5 69 L 80.5 66 Z " /><path fill="rgb(201,82,83)" stroke="rgb(201,82,83)" stroke-width="1" opacity="0.9294117647058824" d="M 76.5 73 L 77 129.5 L 76 129.5 L 76.5 73 Z " /><path fill="rgb(201,82,83)" stroke="rgb(201,82,83)" stroke-width="1" opacity="0.9294117647058824" d="M 136.5 109 L 134.5 112 L 115.5 120 L 115.5 119 L 132.5 112 L 136.5 109 Z " /><path fill="rgb(201,82,83)" stroke="rgb(201,82,83)" stroke-width="1" opacity="0.9294117647058824" d="M 112.5 120 L 114 120.5 L 110.5 122 L 110.5 121 L 112.5 120 Z " /><path fill="rgb(201,82,83)" stroke="rgb(201,82,83)" stroke-width="1" opacity="0.9294117647058824" d="M 107.5 122 L 109 122.5 L 84.5 133 L 84.5 132 L 107.5 122 Z " /><path fill="rgb(201,82,83)" stroke="rgb(201,82,83)" stroke-width="1" opacity="0.9294117647058824" d="M 77.5 131 Q 78.8 133.8 83 133.5 L 79.5 134 L 77.5 131 Z " /><path fill="rgb(220,56,55)" stroke="rgb(220,56,55)" stroke-width="1" opacity="1" d="M 131.5 46 L 135 46 Q 133.9 48.7 136.5 48 L 136.5 51 L 135 48 L 131.5 47 L 128 48.5 L 134 50 L 134.5 53 L 137 52 L 138 54.5 L 135 56 L 136 58.5 Q 134.3 69.3 137 75.5 Q 134.8 76.7 136 81.5 L 136 85.5 L 137 87.5 L 137 89.5 L 136 91.5 L 137 92.5 L 137 101.5 L 135 104.5 L 137 105 Q 138.3 108 134.5 107 L 134 104.5 L 133.5 79 L 132 80.5 L 132 106.5 L 131 109 L 134 110.5 L 121.5 112 L 119.5 110 Q 114.1 110.6 112 109 Q 110.3 113.5 115.5 112 L 121 114.5 L 117.5 117 L 116 116.5 Q 117.2 121.1 112 119 L 112 115 L 110.5 115 L 107.5 121 Q 103.1 119.5 104 122.5 Q 102.5 125.5 101 122.5 L 100.5 121 L 94 121 L 95.5 124 L 97 124.5 L 95.5 127 Q 94 124.5 92.5 128 L 91 127.5 L 93 124 Q 87.6 125.5 86 122.5 L 88 120.5 L 88 90 L 86 90.5 L 86 119.5 L 79.5 122 L 78 120.5 L 78 107.5 L 78 105.5 Q 76.5 100 79 98.5 L 78 95.5 L 79 94.5 L 79 74.5 L 77.5 72 L 79 72.5 L 79.5 70 L 87 72 L 87 75 L 93.5 75 L 94 75.5 L 94 96 L 110 96 L 110 90 L 120 90 L 120 74 L 110.5 74 L 110 72 L 107.5 72 Q 104.8 70.8 106 65.5 L 108.5 62 Q 111.1 62.7 110 60 Q 103.6 59 102 64.5 L 99.5 68 Q 93.4 66.8 94 69.5 L 95 72 Q 98 73 97 70 L 100.5 70 L 103 71 L 101.5 75 L 96.5 75 L 93.5 72 L 86 70 Q 87 67 84 68 L 84 65 Q 88.3 64 87.5 67 L 92 67 L 91 63.5 L 92.5 64 L 105.5 58 L 108.5 59 L 111 58 L 112.5 55 Q 113.7 57.2 115 54.5 Q 114.3 52.3 116.5 53 L 117.5 52 L 125.5 52 L 128 53 L 127 48.5 L 131.5 46 Z M 131 53 L 129 57 Q 132 58 128 60 L 129 79 L 130 73 L 130 59 L 132 60 L 132 74 L 134 73 L 134 60 L 132 58 L 133 55 L 131 53 Z M 117 55 L 118 56 L 117 58 Q 118 60 122 59 L 123 56 L 126 56 L 117 55 Z M 129 85 L 127 87 L 129 92 L 127 99 L 127 104 L 120 107 L 124 109 L 128 108 L 130 105 L 130 87 L 129 85 Z M 112 106 Q 111 109 114 108 Q 115 105 112 106 Z " /><path fill="rgb(220,56,55)" stroke="rgb(220,56,55)" stroke-width="1" opacity="1" d="M 78.5 124 L 87 125 L 88 129.5 L 84 131 L 84 129 Q 80.2 130.5 81 127.5 L 78 125.5 L 77.5 129 L 77 125.5 L 78.5 124 Z " /><path fill="rgb(2,0,0)" stroke="rgb(2,0,0)" stroke-width="1" opacity="1" d="M 46.5 20 Q 51.3 18.7 50 22 L 46.5 22 L 40.5 25 L 39.5 23 L 36 24 L 34.5 27 Q 29.8 27.8 28 25.5 L 32.5 23 L 34 23.5 L 34.5 22 L 36.5 23 L 39 22.5 Q 38.5 19.5 45.5 21 L 46.5 20 Z " /><path fill="rgb(2,0,0)" stroke="rgb(2,0,0)" stroke-width="1" opacity="1" d="M 59 20 L 62.5 20 L 71 24.5 Q 71.8 26.8 69.5 26 L 66 28.5 L 66 30 L 62 30 L 62 27 L 66 27 L 66 25.5 L 65 23 L 59 22 L 59 20 Z " /><path fill="rgb(2,0,0)" stroke="rgb(2,0,0)" stroke-width="1" opacity="1" d="M 51.5 22 L 53.5 23 Q 55 20.5 56.5 24 Q 60.3 23.3 61 25.5 Q 58.3 28.3 51.5 27 L 49 25.5 L 51.5 22 Z " /><path fill="rgb(2,0,0)" stroke="rgb(2,0,0)" stroke-width="1" opacity="1" d="M 18.5 28 Q 22.9 26.5 22 29.5 L 20.5 29 Q 18.3 28.3 19 30.5 L 16.5 34 L 16.5 32 L 15 31.5 L 18.5 28 Z " /><path fill="rgb(2,0,0)" stroke="rgb(2,0,0)" stroke-width="1" opacity="1" d="M 20.5 31 L 20 32.5 L 19.5 35 L 19 32.5 L 20.5 31 Z " /><path fill="rgb(2,0,0)" stroke="rgb(2,0,0)" stroke-width="1" opacity="1" d="M 78.5 31 Q 81.8 32.8 82 37.5 L 82 39.5 L 82 41.5 L 77.5 46 L 69.5 48 Q 68 44.8 63 46 Q 64.4 42 57.5 44 L 54 42.5 L 60.5 40 L 62 40.5 Q 60.8 35.9 66 38 L 66 40 L 68 40 L 68 42 L 70 42 Q 68.9 44.7 71.5 44 L 74.5 43 L 76.5 44 Q 79.3 42.8 77 41.5 L 77.5 39 Q 79.3 41.7 81 37.5 L 79.5 34 L 77.5 35 L 74.5 33 L 70.5 34 L 70.5 33 L 72.5 32 L 74.5 32 L 78 33 L 78.5 31 Z " /><path fill="rgb(2,0,0)" stroke="rgb(2,0,0)" stroke-width="1" opacity="1" d="M 25.5 34 L 25 35.5 L 25.5 37 L 27 36.5 L 26.5 39 L 24 35.5 L 25.5 34 Z " /><path fill="rgb(2,0,0)" stroke="rgb(2,0,0)" stroke-width="1" opacity="1" d="M 29.5 36 L 32 40.5 L 30.5 40 Q 28.3 40.8 29 38.5 Q 26.8 37.3 29.5 36 Z " /><path fill="rgb(2,0,0)" stroke="rgb(2,0,0)" stroke-width="1" opacity="1" d="M 34.5 37 L 37.5 41 L 35.5 42 Q 32.8 40.8 34.5 37 Z " /><path fill="rgb(2,0,0)" stroke="rgb(2,0,0)" stroke-width="1" opacity="1" d="M 44.5 41 L 50 41.5 Q 47.9 43.9 42.5 43 L 42.5 42 L 44.5 41 Z " /><path fill="rgb(2,0,0)" stroke="rgb(2,0,0)" stroke-width="1" opacity="1" d="M 48.5 44 L 50.5 45 L 54.5 44 L 56 47 L 62 48 Q 63.4 51.7 57.5 50 L 55.5 49 L 53.5 50 L 47.5 46 L 46 46.5 Q 45.3 44.3 47.5 45 L 48.5 44 Z " /><path fill="rgb(2,0,0)" stroke="rgb(2,0,0)" stroke-width="1" opacity="1" d="M 10 46 L 14 47 L 14.5 49 L 16.5 48 L 19 52 L 14 52 L 14 50.5 Q 12.8 47.8 11.5 50 L 7.5 48 L 7.5 50 L 5 48.5 L 8.5 47 L 10 47.5 L 10 46 Z " /><path fill="rgb(2,0,0)" stroke="rgb(2,0,0)" stroke-width="1" opacity="1" d="M 5.5 50 L 6 52.5 L 5 52.5 L 5.5 50 Z " /><path fill="rgb(2,0,0)" stroke="rgb(2,0,0)" stroke-width="1" opacity="1" d="M 20.5 52 L 25 55.5 L 21.5 58 L 19.5 58 Q 12.2 60.3 14 55 L 17.5 57 L 20 56.5 L 20.5 52 Z " /><path fill="rgb(2,0,0)" stroke="rgb(2,0,0)" stroke-width="1" opacity="1" d="M 4.5 56 Q 7.3 57.3 5 58.5 Q 4.1 65.3 6 68 L 4 67.5 L 4 65.5 Q 2.3 59.3 5 57.5 L 4.5 56 Z " /><path fill="rgb(2,0,0)" stroke="rgb(2,0,0)" stroke-width="1" opacity="1" d="M 27.5 59 L 29 61.5 L 28 61.5 L 27.5 59 Z " /><path fill="rgb(2,0,0)" stroke="rgb(2,0,0)" stroke-width="1" opacity="1" d="M 32.5 63 Q 36.8 64.8 34 66.5 L 33.5 68 L 29 67 L 29.5 64 Q 31 66.5 32.5 63 Z " /><path fill="rgb(2,0,0)" stroke="rgb(2,0,0)" stroke-width="1" opacity="1" d="M 36.5 66 L 39.5 70 L 41 70.5 L 40 73.5 Q 40.7 76.5 37 75 L 38 70 L 35 68.5 L 36.5 66 Z " /><path fill="rgb(2,0,0)" stroke="rgb(2,0,0)" stroke-width="1" opacity="1" d="M 4.5 69 Q 7.3 70.3 6 75.5 L 5 75.5 L 4 73.5 L 4.5 69 Z " /><path fill="rgb(2,0,0)" stroke="rgb(2,0,0)" stroke-width="1" opacity="1" d="M 29 71 L 33 72.5 L 31.5 75 Q 26.9 76.2 29 71 Z " /><path fill="rgb(2,0,0)" stroke="rgb(2,0,0)" stroke-width="1" opacity="1" d="M 4.5 77 L 6 82.5 L 4 81.5 L 4.5 77 Z " /><path fill="rgb(2,0,0)" stroke="rgb(2,0,0)" stroke-width="1" opacity="1" d="M 41.5 78 L 48 81.5 L 49 85.5 Q 47 89 45 84.5 L 46 82.5 L 43 81.5 L 45 80.5 L 40 79.5 L 41.5 78 Z " /><path fill="rgb(2,0,0)" stroke="rgb(2,0,0)" stroke-width="1" opacity="1" d="M 5.5 84 L 6 86.5 L 4.5 89 L 4 86.5 L 5.5 84 Z " /><path fill="rgb(2,0,0)" stroke="rgb(2,0,0)" stroke-width="1" opacity="1" d="M 46.5 88 L 48 88.5 L 48 90.5 L 48 93.5 L 52 101 L 54 101 L 54 107 L 50 105.5 L 50 100.5 L 46 95.5 L 45 89.5 L 46.5 88 Z " /><path fill="rgb(2,0,0)" stroke="rgb(2,0,0)" stroke-width="1" opacity="1" d="M 52 90 L 55 91.5 L 54 93.5 L 58 100.5 L 55 102 L 52 90 Z " /><path fill="rgb(2,0,0)" stroke="rgb(2,0,0)" stroke-width="1" opacity="1" d="M 46.5 100 L 48 103.5 L 46.5 106 L 46.5 100 Z " /><path fill="rgb(2,0,0)" stroke="rgb(2,0,0)" stroke-width="1" opacity="1" d="M 5 105 L 10 106.5 L 7.5 107 L 5 106.5 L 5 105 Z " /><path fill="rgb(2,0,0)" stroke="rgb(2,0,0)" stroke-width="1" opacity="1" d="M 58.5 105 L 60 110.5 L 59 110.5 L 58.5 105 Z " /><path fill="rgb(2,0,0)" stroke="rgb(2,0,0)" stroke-width="1" opacity="1" d="M 55.5 107 Q 58.1 106.2 57 109.5 L 56 109.5 L 55.5 108 L 54.5 111 L 54 108.5 L 55.5 107 Z " /><path fill="rgb(2,0,0)" stroke="rgb(2,0,0)" stroke-width="1" opacity="1" d="M 11.5 110 L 14 110.5 L 11.5 111 L 11.5 110 Z " /><path fill="rgb(2,0,0)" stroke="rgb(2,0,0)" stroke-width="1" opacity="1" d="M 59.5 112 L 60.5 114 Q 57.7 114.7 59.5 112 Z " /><path fill="rgb(2,0,0)" stroke="rgb(2,0,0)" stroke-width="1" opacity="1" d="M 20.5 113 L 23.5 114 L 27.5 113 L 34 117.5 L 33 119.5 L 34.5 119 Q 36.8 118.3 36 120.5 L 32.5 120 L 31 119.5 Q 34.8 117.8 31.5 116 L 29 117.5 L 29.5 119 L 21 116 L 20.5 114 L 19 114.5 L 20.5 113 Z " /><path fill="rgb(2,0,0)" stroke="rgb(2,0,0)" stroke-width="1" opacity="1" d="M 35 114 Q 38.7 112.5 38 115.5 L 35 117.5 L 35 114 Z " /><path fill="rgb(2,0,0)" stroke="rgb(2,0,0)" stroke-width="1" opacity="1" d="M 62.5 116 L 64 130.5 L 61 132 L 62 119.5 L 61 117.5 L 62.5 116 Z " /><path fill="rgb(2,0,0)" stroke="rgb(2,0,0)" stroke-width="1" opacity="1" d="M 37.5 121 L 47 122.5 L 47 124.5 L 48 126.5 L 46 125.5 L 45.5 124 L 42.5 125 L 42.5 124 L 44 123.5 L 41.5 123 Q 40 125.5 38.5 122 L 37.5 121 Z " /><path fill="rgb(2,0,0)" stroke="rgb(2,0,0)" stroke-width="1" opacity="1" d="M 50.5 122 Q 54.5 122.5 54 127.5 L 53.5 129 L 55 129.5 L 53.5 130 L 52 127.5 L 53 125.5 L 51 126.5 Q 51.7 129.1 49 128 Q 48 125 51 126 L 51 123.5 L 49.5 124 L 48 123.5 L 50.5 122 Z " /><path fill="rgb(2,0,0)" stroke="rgb(2,0,0)" stroke-width="1" opacity="1" d="M 56.5 129 L 57.5 131 L 56.5 129 Z " /><path fill="rgb(1,0,1)" stroke="rgb(1,0,1)" stroke-width="1" opacity="1" d="M 56.5 20 L 60 22.5 L 56.5 24 Q 53.7 22.8 56 21.5 L 56.5 20 Z " /><path fill="rgb(1,0,1)" stroke="rgb(1,0,1)" stroke-width="1" opacity="1" d="M 50.5 21 L 54 22.5 L 52.5 23 L 50.5 23 L 47 23.5 L 50 24.5 L 49.5 26 L 58.5 27 L 65.5 25 L 66 27 Q 60.4 25.1 62 30 L 66 30 L 66 28.5 L 70.5 26 L 71 28.5 L 73 31.5 L 78.5 35 L 80 34.5 Q 76.1 37.5 77 44 L 75 44 Q 76.1 41.3 73.5 42 L 71 43.5 Q 71.8 40.9 68.5 42 L 66.5 43 L 66.5 42 Q 69.1 42.7 68 40 Q 65 41 66 38 L 62 38 L 61.5 41 L 59.5 41 L 54 42.5 L 57 43.5 L 54.5 44 L 52.5 43 L 47.5 44 L 47.5 43 L 52 42.5 Q 49.9 40.1 44.5 41 L 42 42.5 Q 44.3 43.8 41.5 45 L 41.5 43 L 39.5 44 L 36 41.5 L 38 40.5 L 34 37.5 L 35 41.5 L 33.5 41 Q 31.3 41.8 32 39.5 L 29.5 35 L 27 36 Q 28.1 33.3 25.5 34 L 25.5 36 Q 23.8 32.3 22 35.5 L 24 36.5 L 22.5 37 L 19 35.5 L 22 35 L 21.5 33 L 20 33.5 Q 19.3 31.3 21.5 32 L 21.5 31 L 19 30.5 L 22 30 L 23.5 26 L 34.5 27 L 37.5 24 L 38.5 25 L 43.5 26 L 43.5 25 L 41 24.5 L 43.5 24 L 45.5 25 L 46.5 22 L 50.5 21 Z M 73 32 L 70 34 L 74 34 L 73 32 Z " /><path fill="rgb(1,0,1)" stroke="rgb(1,0,1)" stroke-width="1" opacity="1" d="M 73.5 26 L 74.5 30 Q 70 28 73.5 26 Z " /><path fill="rgb(1,0,1)" stroke="rgb(1,0,1)" stroke-width="1" opacity="1" d="M 77.5 30 L 78 31.5 Q 76.5 34.5 75 31.5 L 77.5 30 Z " /><path fill="rgb(1,0,1)" stroke="rgb(1,0,1)" stroke-width="1" opacity="1" d="M 16.5 32 L 19 32.5 L 17.5 35 L 16.5 33 L 15 33.5 L 16.5 32 Z " /><path fill="rgb(1,0,1)" stroke="rgb(1,0,1)" stroke-width="1" opacity="1" d="M 80.5 37 L 79.5 39 L 80.5 37 Z " /><path fill="rgb(1,0,1)" stroke="rgb(1,0,1)" stroke-width="1" opacity="1" d="M 66 46 L 70 48.5 L 62 50 L 62.5 48 L 64.5 49 L 66 46 Z " /><path fill="rgb(1,0,1)" stroke="rgb(1,0,1)" stroke-width="1" opacity="1" d="M 5.5 49 L 7.5 50 L 9.5 50 L 14 50 L 14 52 Q 17.8 50.5 17 53.5 Q 21.9 55.1 22.5 61 L 24.5 57 L 28 57.5 L 27 59.5 L 30 63.5 L 29 67 L 33.5 68 L 34.5 66 L 36.5 70 Q 38.8 69.3 38 71.5 L 37 75 Q 40.7 76.5 40 73.5 L 42 74.5 Q 41.3 76.8 43.5 76 L 45 78.5 L 43.5 78 L 40 79.5 L 45 80.5 L 43 81.5 L 46 82.5 L 45 84.5 L 47 84.5 L 45 90.5 L 46 95.5 L 50 102 L 46.5 100 L 46 105.5 L 47 105.5 L 47.5 104 L 48 106 L 53.5 107 L 55 106.5 L 56.5 110 L 57.5 106 L 59.5 111 L 60 108.5 L 59 105.5 L 60 105.5 L 61 112.5 L 59 112.5 Q 58.2 115.1 61.5 114 Q 64.8 115.8 61 117.5 L 62 124.5 L 61 130 Q 58.3 128.9 59 131.5 L 58 131.5 L 56.5 129 L 54.5 129 L 53 128.5 L 54 124.5 L 53.5 122 L 51.5 123 L 49 122.5 L 48.5 121 L 47.5 123 L 37.5 121 L 36 121.5 Q 37.1 118.2 34.5 119 L 33 119.5 L 32.5 118 Q 31.3 120.3 30 117.5 L 33 116.5 Q 34.4 111.9 28.5 114 L 26.5 113 L 23.5 114 L 19.5 114 L 17.5 113 Q 16 115.5 14.5 112 L 13 111.5 L 13.5 110 L 12 109.5 L 14 109 L 13.5 107 L 10 108 Q 11.3 105 7.5 106 L 4 100.5 L 5.5 98 L 4 97.5 L 4 89.5 L 6 84.5 L 6 82.5 L 4 74.5 L 5 74.5 L 5.5 76 L 6 69 L 4 68.5 L 6 68 L 5.5 66 L 4 66.5 Q 6.7 64.8 5 58.5 L 5 56.5 L 6 50.5 L 5.5 49 Z M 14 55 L 14 58 L 20 58 Q 19 55 18 57 L 14 55 Z M 30 68 L 29 75 L 33 74 L 35 75 L 37 72 L 34 71 L 32 72 L 33 69 L 30 68 Z M 13 105 L 11 107 L 13 107 L 13 105 Z M 55 108 L 54 111 L 55 111 L 55 108 Z M 35 114 L 35 118 L 38 116 Q 39 112 35 114 Z " /><path fill="rgb(1,0,1)" stroke="rgb(1,0,1)" stroke-width="1" opacity="1" d="M 19.5 50 L 20 53.5 L 19 53.5 L 19.5 50 Z " /><path fill="rgb(1,0,1)" stroke="rgb(1,0,1)" stroke-width="1" opacity="1" d="M 48.5 86 L 51 86.5 L 47.5 88 L 48.5 86 Z " /><path fill="rgb(1,0,1)" stroke="rgb(1,0,1)" stroke-width="1" opacity="1" d="M 48.5 90 L 50 94.5 L 48 93.5 L 48.5 90 Z " /><path fill="rgb(1,0,1)" stroke="rgb(1,0,1)" stroke-width="1" opacity="1" d="M 52.5 94 Q 55.5 95.6 54 101 Q 51.3 102.1 52 99.5 L 50 96.5 L 51 96.5 L 52.5 99 L 53 95.5 L 52.5 94 Z " /><path fill="rgb(1,0,1)" stroke="rgb(1,0,1)" stroke-width="1" opacity="1" d="M 55.5 94 L 57 96.5 L 55 95.5 L 55.5 94 Z " /><path fill="rgb(1,0,1)" stroke="rgb(1,0,1)" stroke-width="1" opacity="1" d="M 56 103 L 58 103.5 L 56 104.5 L 56 103 Z " /><path fill="rgb(1,0,1)" stroke="rgb(1,0,1)" stroke-width="1" opacity="1" d="M 7.5 107 L 9 107 L 9 109 Q 11.7 107.9 11 110.5 L 7.5 107 Z " /><path fill="rgb(1,0,1)" stroke="rgb(1,0,1)" stroke-width="1" opacity="1" d="M 63.5 118 L 64 120.5 L 63 120.5 L 63.5 118 Z " /><path fill="rgb(1,0,1)" stroke="rgb(1,0,1)" stroke-width="1" opacity="1" d="M 63 122 Q 66 120.8 65 124.5 L 63 123.5 L 63 122 Z " /><path fill="rgb(1,0,1)" stroke="rgb(1,0,1)" stroke-width="1" opacity="1" d="M 48.5 124 L 50 124.5 L 47.5 126 L 48.5 124 Z " /><path fill="rgb(1,0,1)" stroke="rgb(1,0,1)" stroke-width="1" opacity="1" d="M 52.5 125 L 52 126.5 L 51.5 128 L 51 126.5 L 52.5 125 Z " /></svg>